<?xml version="1.0" encoding="UTF-8"?>
<svg width="159px" height="134px" viewBox="0 0 159 134" version="1.1" xmlns="http://www.w3.org/2000/svg" xmlns:xlink="http://www.w3.org/1999/xlink">
    <title>empty</title>
    <g id="empty" stroke="none" stroke-width="1" fill="none" fill-rule="evenodd">
        <g id="Group-2">
            <polyline id="Fill-191" fill="#939598" points="141.272724 101.674303 71.9490375 133.806323 72.3818597 55.1806754 141.458532 33.0787635 141.272724 101.674303"></polyline>
            <polyline id="Fill-192" fill="#939598" points="20.3710604 36.2335563 72.3818597 55.1806754 141.27491 33.0787635 77.5232626 20.4786101 20.3710604 36.2335563"></polyline>
            <polyline id="Fill-193" fill="#EEEEEE" points="77.5232626 20.4786101 102.095759 8.22864927 158.673051 20.4786101 141.458532 33.0787635 77.5232626 20.4786101"></polyline>
            <polyline id="Fill-194" fill="#DBDBDB" points="77.5232626 20.4786101 77.5232626 54.0194878 91.2620881 49.1237879 141.458532 33.0787635 77.5232626 20.4786101"></polyline>
            <polyline id="Fill-195" fill="#DBDBDB" points="72.3818597 55.1806754 71.9490375 133.806323 20.3710604 112.494202 20.3710604 36.2335563 72.3818597 55.1806754"></polyline>
            <polyline id="Fill-196" fill="#EEEEEE" points="72.3818597 55.1806754 88.3132137 83.4426525 158.673051 55.4805905 141.458532 33.0787635 72.3818597 55.1806754"></polyline>
            <polyline id="Fill-197" fill="#EEEEEE" points="72.3818597 55.1806754 56.1794454 81.4455498 -9.94064356e-14 57.0300065 20.3710604 36.2335563 72.3818597 55.1806754"></polyline>
            <polyline id="Fill-198" fill="#DBDBDB" points="20.3710604 36.2335563 5.04303426 11.2262708 63.7341599 -3.10645111e-15 77.5232626 20.4786101 20.3710604 36.2335563"></polyline>
        </g>
    </g>
</svg>