<?xml version="1.0" encoding="UTF-8"?>
<svg width="46px" height="46px" viewBox="0 0 46 46" version="1.1" xmlns="http://www.w3.org/2000/svg" xmlns:xlink="http://www.w3.org/1999/xlink">
    <title>icon</title>
    <g id="icon" stroke="none" stroke-width="1" fill="none" fill-rule="evenodd">
        <path d="M38.8176323,23.3889142 L36.799042,16.5584512 C36.7890055,16.524578 36.7767735,16.4913321 36.7623461,16.4590271 C36.642849,16.1905508 36.4948107,15.9399521 36.323563,15.7100536 L36.5111199,15.7100536 C36.9546077,15.7100536 37.3140396,15.3503079 37.3140396,14.9071339 C37.3140396,14.4636462 36.9546077,14.1042142 36.5111199,14.1042142 L31.5148266,14.1042142 L31.5148266,12.0072138 C31.5148266,8.97054628 29.044594,6.5 26.0079265,6.5 L2.80291971,6.5 C2.35943199,6.5 2,6.85943199 2,7.30291971 L2,34.8004106 C2,35.2435846 2.35943199,35.6033303 2.80291971,35.6033303 L7.26257415,35.6033303 C7.64396101,37.7815636 9.54901344,39.4419765 11.8348255,39.4419765 C14.1206375,39.4419765 16.02569,37.78125 16.4070769,35.6033303 L29.9789291,35.6033303 C30.3603159,37.7815636 32.2650547,39.4419765 34.5508668,39.4419765 C36.8369925,39.4419765 38.742045,37.78125 39.1234318,35.6033303 L42.3065693,35.6033303 C42.7500571,35.6033303 43.1094891,35.2435846 43.1094891,34.8004106 L43.1094891,28.8384181 C43.1094891,26.1997605 41.2768875,23.9816948 38.8176323,23.3889142 Z M37.0970005,23.2330349 L31.5148266,23.2330349 L31.5148266,15.7141309 L33.1604984,15.7229129 L33.1620666,15.7229129 C34.0669195,15.7257356 34.8908531,16.2523381 35.2753764,17.068117 L37.0970005,23.2330349 Z M3.60583942,8.10583942 L25.2050068,8.10583942 L25.2050068,16.5277144 C25.2050068,16.9708884 25.5644389,17.3306341 26.0079265,17.3306341 C26.4511006,17.3306341 26.8108462,16.9708884 26.8108462,16.5277144 L26.8108462,8.18895413 C28.5778969,8.5603045 29.9089872,10.1310162 29.9089872,12.0069001 L29.9089872,33.9974909 L26.8108462,33.9974909 L26.8108462,23.7897468 C26.8108462,23.3462591 26.4511006,22.9868271 26.0079265,22.9868271 C25.5644389,22.9868271 25.2050068,23.3462591 25.2050068,23.7897468 L25.2050068,33.9974909 L16.4070769,33.9974909 C16.02569,31.8192575 14.1206375,30.158531 11.8348255,30.158531 C9.54901344,30.158531 7.64396101,31.8192575 7.26257415,33.9974909 L3.60583942,33.9974909 L3.60583942,8.10583942 Z M11.8348255,37.8361371 C10.1606125,37.8361371 8.79878534,36.47431 8.79878534,34.8004106 C8.79878534,33.1261976 10.1606125,31.7643704 11.8348255,31.7643704 C13.5090386,31.7643704 14.8708656,33.1261976 14.8708656,34.8004106 C14.8708656,36.47431 13.5090386,37.8361371 11.8348255,37.8361371 L11.8348255,37.8361371 Z M34.5508668,37.8361371 C32.8769674,37.8361371 31.5148266,36.47431 31.5148266,34.8004106 C31.5148266,33.1261976 32.8769674,31.7643704 34.5508668,31.7643704 C36.2250798,31.7643704 37.5872206,33.1261976 37.5872206,34.8004106 C37.5872206,36.47431 36.2250798,37.8361371 34.5508668,37.8361371 L34.5508668,37.8361371 Z M41.5036496,33.9974909 L39.1234318,33.9974909 C38.742045,31.8192575 36.8369925,30.158531 34.5511804,30.158531 C33.3913378,30.158531 32.329351,30.5860231 31.5148266,31.2917142 L31.5148266,24.8388743 L37.5041058,24.8388743 C39.7093123,24.8388743 41.5036496,26.6332117 41.5036496,28.8384181 L41.5036496,33.9974909 Z" id="Shape" fill="#000000" fill-rule="nonzero"></path>
        <path d="M10.6066092,27.216583 L18.9130645,27.216583 C20.2200046,27.216583 21.2832459,26.1533417 21.2832459,24.8464017 L21.2832459,16.2717838 C21.2832459,15.8282961 20.9238139,15.4688641 20.4803261,15.4688641 L18.2663378,15.4688641 C18.1568772,13.6293625 16.6259979,12.1662294 14.7598369,12.1662294 C12.8933622,12.1662294 11.3624829,13.6293625 11.2530224,15.4688641 L9.03934763,15.4688641 C8.59585999,15.4688641 8.23642792,15.8282961 8.23642792,16.2717838 L8.23642792,24.8464017 C8.23642792,26.1533417 9.29966921,27.216583 10.6066092,27.216583 Z M14.7598369,13.7720688 C15.7402771,13.7720688 16.5497833,14.5160242 16.6551666,15.4688641 L12.8645073,15.4688641 C12.9695769,14.5160242 13.7793966,13.7720688 14.7598369,13.7720688 Z M9.84226734,17.0747035 L11.2467495,17.0747035 L11.2467495,18.8696681 C11.2467495,19.3128422 11.6061816,19.6725878 12.0496692,19.6725878 C12.4931569,19.6725878 12.8525889,19.3128422 12.8525889,18.8696681 L12.8525889,17.0747035 L16.6670849,17.0747035 L16.6670849,18.8696681 C16.6670849,19.3128422 17.0265169,19.6725878 17.4700046,19.6725878 C17.9134922,19.6725878 18.2729243,19.3128422 18.2729243,18.8696681 L18.2729243,17.0747035 L19.6774064,17.0747035 L19.6774064,24.8464017 C19.6774064,25.2679346 19.3345974,25.6107436 18.9130645,25.6107436 L10.6066092,25.6107436 C10.1850764,25.6107436 9.84226734,25.2679346 9.84226734,24.8464017 L9.84226734,17.0747035 Z" id="Shape" fill="#000000" fill-rule="nonzero"></path>
        <path d="M26.0082402,20.9469093 C25.6773495,20.9469093 25.3728045,20.7355155 25.2564439,20.4262659 C25.1407105,20.118271 25.2291572,19.7569571 25.4785013,19.5405451 C25.7356866,19.3169195 26.1129961,19.2795962 26.4087591,19.4492758 C26.6944856,19.6129961 26.8550696,19.9492187 26.7995552,20.2747776 C26.7349453,20.6564781 26.3971544,20.9469093 26.0082402,20.9469093 L26.0082402,20.9469093 Z" id="Path" fill="#000000" fill-rule="nonzero"></path>
    </g>
</svg>