<?xml version="1.0" encoding="UTF-8"?>
<svg width="253px" height="202px" viewBox="0 0 253 202" version="1.1" xmlns="http://www.w3.org/2000/svg" xmlns:xlink="http://www.w3.org/1999/xlink">
    <title>illustration</title>
    <g id="illustration" stroke="none" stroke-width="1" fill="none" fill-rule="evenodd">
        <g id="wfh_1">
            <rect id="Rectangle" fill="#FFBE21" fill-rule="nonzero" x="40.1111086" y="108.293947" width="5.50013304" height="93.4821064"></rect>
            <line x1="45.6134812" y1="109.579401" x2="40.1111086" y2="109.579401" id="Path" stroke="#A15842"></line>
            <path d="M15.1522395,183.018271 C16.2942006,179.743181 19.3830594,177.548963 22.8515299,177.548963 C26.3200005,177.548963 29.4088593,179.743181 30.5508204,183.018271 C31.6383287,179.898405 34.5010492,177.743184 37.7999778,177.560687 C37.0798165,176.277178 36.2222907,175.075741 35.2425055,173.977539 L32.281929,170.64745 C30.3964366,168.528059 30.0384301,165.455469 31.3861419,162.959357 L33.8988248,158.290067 L33.8988248,158.290067 C33.1933925,158.999978 29.1153215,162.818271 22.9254324,162.818271 C16.7355432,162.818271 12.6574723,158.999978 11.9520399,158.290067 L11.9408426,158.290067 L14.455765,162.959357 C15.7976079,165.460705 15.4287008,168.534632 13.5331042,170.64745 L10.5747672,173.964102 C9.59317559,175.062403 8.73343156,176.263792 8.0105765,177.547251 C11.2726097,177.774434 14.0836303,179.927875 15.1522395,183.018271 L15.1522395,183.018271 Z" id="Path" fill="#4756DF" fill-rule="nonzero"></path>
            <path d="M38.2501109,187.736829 C34.7806089,187.737415 31.6914394,189.933439 30.5508204,193.210089 C29.4109802,189.932768 26.3214095,187.736211 22.8515299,187.736211 C19.3816504,187.736211 16.2920797,189.932768 15.1522395,193.210089 C13.7560597,189.204456 9.52314692,186.937103 5.41503326,187.994368 C5.52879721,193.162394 7.61149368,198.091976 11.2376497,201.776053 L34.5706652,201.776053 C38.1894826,198.09981 40.2715908,193.182832 40.3932816,188.025721 C39.6949879,187.834197 38.9741933,187.737037 38.2501109,187.736829 Z" id="Path" fill="#4756DF" fill-rule="nonzero"></path>
            <path d="M22.9075166,162.827228 C29.0974058,162.827228 33.1754767,159.008936 33.8809091,158.299024 L11.9341242,158.299024 C12.6395565,159.002217 16.7176275,162.827228 22.9075166,162.827228 Z" id="Path" fill="#30242A" fill-rule="nonzero"></path>
            <path d="M15.1522395,193.210089 C16.2920797,189.932768 19.3816504,187.736211 22.8515299,187.736211 C26.3214095,187.736211 29.4109802,189.932768 30.5508204,193.210089 C31.9597463,189.158574 36.2674756,186.892121 40.4044789,188.025721 C40.4964877,184.366836 39.5981562,180.751071 37.8044568,177.560687 C34.5055282,177.743184 31.6428077,179.898405 30.5552993,183.018271 C29.4133382,179.743181 26.3244794,177.548963 22.8560089,177.548963 C19.3875383,177.548963 16.2986795,179.743181 15.1567184,183.018271 C14.0815858,179.935785 11.2719679,177.791348 8.01505543,177.567406 C6.22936489,180.746971 5.33279725,184.348713 5.4195122,187.994368 C9.52762586,186.937103 13.7605386,189.204456 15.1567184,193.210089 L15.1522395,193.210089 Z" id="Path" fill="#3EC1F3" fill-rule="nonzero"></path>
            <path d="M24.5333703,162.186741 C24.9812639,159.445632 27.0169401,148.579734 32.1363636,142.674257" id="Path" stroke="#30242A" stroke-linecap="round"></path>
            <path d="M22.1707317,162.265122 C22.1371397,159.152262 21.8168958,143.867894 18.7779379,134.74878" id="Path" stroke="#30242A" stroke-linecap="round"></path>
            <ellipse id="Oval" fill="#30242A" fill-rule="nonzero" transform="translate(34.835630, 149.741978) rotate(-23.750000) translate(-34.835630, -149.741978) " cx="34.8356302" cy="149.741978" rx="8.87949002" ry="1.99760532"></ellipse>
            <ellipse id="Oval" fill="#30242A" fill-rule="nonzero" transform="translate(34.260206, 122.767463) rotate(-53.510000) translate(-34.260206, -122.767463) " cx="34.2602059" cy="122.767463" rx="4.91339246" ry="1.7131929"></ellipse>
            <ellipse id="Oval" fill="#30242A" fill-rule="nonzero" transform="translate(11.052051, 151.250280) rotate(-8.600000) translate(-11.052051, -151.250280) " cx="11.0520506" cy="151.25028" rx="10.7158537" ry="1.89235033"></ellipse>
            <path d="M7.24691796,137.857162 L7.24691796,137.872838 C9.03916394,138.875034 9.76856534,141.080554 8.92724605,142.953713 C8.08592677,144.826872 5.95279233,145.746699 4.01312639,145.072727 L4.01312639,145.086164 C8.91756098,147.2898 13.6226829,147.457761 14.5184701,145.462395 C15.4142572,143.467029 12.153592,140.060798 7.24691796,137.857162 Z" id="Path" fill="#FF7235" fill-rule="nonzero"></path>
            <path d="M21.7474723,121.885277 C20.7038803,121.614302 19.3467627,123.193126 18.3546785,125.636386 C17.1610421,122.669091 15.4299335,120.682683 14.2631707,121.067871 C13.096408,121.45306 12.8881375,124.077716 13.6965854,127.172661 C11.4436807,125.802106 9.41472284,125.340776 8.73616408,126.180576 C7.87172949,127.251042 9.53789357,130.027982 12.4581596,132.386142 C13.2889772,133.062975 14.182899,133.658423 15.1276053,134.164279 C15.4547834,132.864682 16.4171578,131.818794 17.6851039,131.384844 C18.95305,130.950895 20.3544519,131.18779 21.4093126,132.01439 C21.8470076,131.072354 22.1963684,130.091744 22.4529047,129.085166 C23.3957206,125.454989 23.0799557,122.230155 21.7474723,121.885277 Z" id="Path" fill="#FF7235" fill-rule="nonzero"></path>
            <path d="M44.5139024,138.37 C44.1914191,137.339845 42.1333481,137.026319 39.5355654,137.474213 C41.4211973,134.892106 42.1915743,132.372705 41.2487583,131.586652 C40.3059424,130.800599 37.9656984,132.012151 35.766541,134.334479 C35.7396674,131.696386 35.0566297,129.730133 33.9861641,129.598004 C32.6223282,129.430044 31.1442794,132.314479 30.6874279,136.036475 C30.5520577,137.100583 30.5190611,138.175223 30.5888914,139.245632 C31.8654451,138.834275 33.2634612,139.097126 34.3034403,139.944031 C35.3434193,140.790935 35.883961,142.106745 35.7396674,143.440155 C36.7710742,143.309653 37.7883268,143.084763 38.7786253,142.768315 C42.3550554,141.655299 44.9237251,139.682328 44.5139024,138.37 Z" id="Path" fill="#FF7235" fill-rule="nonzero"></path>
            <path d="M34.3332816,139.966741 C33.2923534,139.098484 31.879276,138.823813 30.5888914,139.238914 C30.716541,141.010333 31.1644346,142.374169 31.8385144,142.869091 C32.4678049,143.451353 33.923459,143.646186 35.7351885,143.433437 C35.8786166,142.115921 35.3522126,140.814207 34.3332816,139.966741 L34.3332816,139.966741 Z" id="Path" fill="#30242A" fill-rule="nonzero"></path>
            <path d="M17.725388,131.371663 C16.4383847,131.796275 15.4581948,132.84998 15.1276053,134.164279 C16.6952328,134.992882 18.0881818,135.328803 18.8719956,135.024235 C19.6983592,134.800288 20.6322173,133.664878 21.4093126,132.01439 C20.3667537,131.196073 18.9834583,130.954732 17.725388,131.371663 L17.725388,131.371663 Z" id="Path" fill="#30242A" fill-rule="nonzero"></path>
            <path d="M7.68361419,144.506142 C6.81051531,144.019257 6.45584517,142.94477 6.86753458,142.033798 C7.27922398,141.122826 8.32005513,140.678999 9.26243902,141.012572 C9.15565742,139.696707 8.39969124,138.520759 7.24691796,137.877317 L4.00640798,145.072727 C5.25010793,145.506994 6.62831801,145.294638 7.68361419,144.506142 Z" id="Path" fill="#F5EBDD" fill-rule="nonzero"></path>
            <path d="M6.85949002,142.036009 C6.45463224,142.946655 6.81228312,144.01572 7.68361419,144.499424 C8.77790096,143.685702 9.37480635,142.36489 9.26243902,141.005854 C8.31532606,140.668556 7.26821451,141.117457 6.85949002,142.036009 Z" id="Path" fill="#4856DF" fill-rule="nonzero"></path>
            <path d="M154.856962,145.65051 L97.9005765,145.65051 L98.8635477,141.829978 L123.864967,141.829978 L133.400621,104.538359 C136.072933,94.089245 145.486888,86.7793792 156.272306,86.7793792 L156.272306,86.7793792 C169.102217,86.7793792 178.490067,98.8725055 175.307783,111.301552 L169.415743,134.343437 C167.714654,140.995096 161.722694,145.64875 154.856962,145.65051 Z" id="Path" fill="#FFB7D5" fill-rule="nonzero"></path>
            <polygon id="Rectangle" fill="#A15842" fill-rule="nonzero" transform="translate(116.491519, 182.964523) rotate(-90.000000) translate(-116.491519, -182.964523) " points="114.469279 164.814756 118.513758 164.814756 118.513758 201.11429 114.469279 201.11429"></polygon>
            <path d="M140.620665,199.603769 L131.179069,143.404324 L101.801729,143.404324 L92.360133,199.603769 C92.2699206,200.144818 92.4223985,200.69815 92.7770186,201.116619 C93.1316388,201.535088 93.6524579,201.776053 94.2009756,201.776053 L94.2009756,201.776053 C95.0782227,201.775229 95.8366725,201.163997 96.0239024,200.306962 L108.390244,143.404324 L124.599512,143.404324 L136.961375,200.306962 C137.14784,201.164469 137.906755,201.776053 138.784302,201.776053 L138.784302,201.776053 C139.332036,201.774964 139.851616,201.533209 140.205228,201.114912 C140.55884,200.696614 140.71075,200.144046 140.620665,199.603769 Z" id="Path" fill="#A15842" fill-rule="nonzero"></path>
            <polygon id="Rectangle" fill="#FFBE21" fill-rule="nonzero" transform="translate(146.563093, 182.964523) rotate(-90.000000) translate(-146.563093, -182.964523) " points="144.540854 164.814756 148.585333 164.814756 148.585333 201.11429 144.540854 201.11429"></polygon>
            <path d="M170.692239,199.603769 L161.241685,143.404324 L131.875543,143.404324 L122.433947,199.603769 C122.343734,200.144818 122.496212,200.69815 122.850832,201.116619 C123.205452,201.535088 123.726272,201.776055 124.274789,201.776055 L124.274789,201.776055 C125.151796,201.776055 125.909956,201.164122 126.095477,200.306962 L138.457339,143.404324 L154.668847,143.404324 L167.03071,200.306962 C167.217353,201.16529 167.97749,201.777131 168.855876,201.776055 L168.855876,201.776055 C169.403611,201.774964 169.92319,201.533209 170.276802,201.114912 C170.630415,200.696614 170.782324,200.144046 170.692239,199.603769 L170.692239,199.603769 Z" id="Path" fill="#FFBE21" fill-rule="nonzero"></path>
            <path d="M141.02153,134.343437 L144.622594,120.259424 L120.756585,120.259424 C111.129326,120.259424 102.725968,126.78363 100.339357,136.110377 L97.9005765,145.65051 L126.46051,145.65051 C133.327076,145.649773 139.320234,140.995904 141.02153,134.343437 Z" id="Path" fill="#FFB7D5" fill-rule="nonzero"></path>
            <line x1="99.4525277" y1="141.455987" x2="129.752528" y2="141.455987" id="Path" stroke="#A15842" stroke-linecap="round" stroke-linejoin="round"></line>
            <line x1="123.972461" y1="141.3149" x2="129.282239" y2="120.555033" id="Path" stroke="#A15842" stroke-linecap="round" stroke-linejoin="round"></line>
            <line x1="172.662971" y1="119.777938" x2="158.330377" y2="119.777938" id="Path" stroke="#A15842" stroke-linecap="round" stroke-linejoin="round"></line>
            <line x1="175.350333" y1="109.700333" x2="156.986696" y2="109.700333" id="Path" stroke="#A15842" stroke-linecap="round" stroke-linejoin="round"></line>
            <path d="M108.459667,105.149734 C108.459667,105.149734 90.4924169,110.042971 82.8603104,113.861264 C70.2767406,120.151929 70.3192905,124.303902 62.6468736,147.547339 C55.5634368,169.028315 54.784102,179.439601 45.0133038,179.851663 C37.5536364,180.165188 35.1081375,182.606208 33.8988248,185.951973 L63.4172506,199.957605 C64.1196494,200.290027 64.9594149,200.01698 65.3319956,199.335033 L65.3319956,199.335033 C65.7121564,198.63677 65.4668363,197.762755 64.778847,197.364302 L64.1585144,197.005987 C66.9018625,193.682616 72.1937251,186.601419 77.4699113,175.845255 L80.8291131,177.412882 C80.8291131,177.412882 86.2553437,170.360798 87.1152993,162.361419 C88.2350333,152.030754 87.5631929,145.068248 92.2817517,141.026009 L147.305477,105.140776 L108.459667,105.149734 Z" id="Path" fill="#FF7235" fill-rule="nonzero"></path>
            <path d="M42.1131929,181.511109 C42.697694,180.295078 45.9449224,172.886918 47.8126386,173.782705 C50.2424612,174.947228 43.9361197,182.384501 43.9361197,182.384501 L42.1131929,181.511109 Z" id="Path" fill="#30242A" fill-rule="nonzero"></path>
            <path d="M33.8965854,186.057228 L63.4150111,200.060621 C64.1251841,200.39949 64.9762059,200.116645 65.3422451,199.420087 C65.7082843,198.723529 65.4585119,197.86222 64.7766075,197.469557 L64.1562749,197.111242 L64.21898,197.0351 L43.9294013,187.456896 C44.2334103,186.614582 44.4466215,185.742217 44.5654102,184.854634 C47.6021286,185.380909 53.7472284,185.947494 53.7785809,183.414656 C53.8121729,181.054257 47.1004878,182.001552 44.6482705,182.668914 C44.595408,181.761648 44.4191062,180.865824 44.124235,180.006186 C37.3588027,180.471996 35.0566297,182.845831 33.8965854,186.057228 Z" id="Path" fill="#30242A" fill-rule="nonzero"></path>
            <path d="M82.8603104,113.861264 C81.4472062,114.566696 80.1953437,115.245255 79.0733703,115.926053 L77.3512195,121.441863 L83.9800443,116.772572 L90.0915521,121.645654 L87.8386475,114.965322 L94.7608426,111.794235 L89.4107539,111.122395 C87.180152,111.918295 84.9935679,112.832549 82.8603104,113.861264 L82.8603104,113.861264 Z" id="Path" fill="#FFB7D5" fill-rule="nonzero"></path>
            <polygon id="Path" fill="#FFB7D5" fill-rule="nonzero" points="102.39071 110.990266 101.942816 113.908293 104.863082 112.786319"></polygon>
            <polygon id="Path" fill="#FFB7D5" fill-rule="nonzero" points="85.5476718 125.587118 81.2814856 131.201463 75.2170067 128.283437 78.8091131 134.345676 73.1947672 139.061996 80.3812195 138.163969 82.853592 146.474634 85.3237251 138.163969 93.1842572 135.917783 85.5476718 132.77357"></polygon>
            <path d="M61.5629712,168.455011 L62.0870067,166.959047 L69.2533038,166.578337 L63.4306874,162.614479 L66.0239911,156.404435 L60.1588248,160.314545 L59.0390909,159.105233 C58.1433038,162.054612 57.3505322,164.681508 56.5756763,166.990399 L56.6115078,166.990399 C56.6966075,166.737339 56.7817073,166.48204 56.8668071,166.222262 L61.5629712,168.455011 Z" id="Path" fill="#FFB7D5" fill-rule="nonzero"></path>
            <path d="M61.5629712,168.455011 L56.8600887,166.23122 C56.7749889,166.490998 56.6898891,166.746297 56.6047894,166.999357 C53.7629047,175.464545 51.1740798,179.69714 45.0177827,179.956918 C44.7154545,179.956918 44.4243237,179.986031 44.1376718,180.006186 C44.432543,180.865824 44.6088448,181.761648 44.6617073,182.668914 C47.125122,181.997073 53.8256098,181.054257 53.7920177,183.414656 C53.7561863,185.947494 47.6155654,185.380909 44.578847,184.854634 C44.4578817,185.742467 44.2424168,186.614837 43.9361197,187.456896 L64.2256984,197.0351 C66.9847228,193.675898 72.231796,186.630532 77.4676718,175.963947 L61.5629712,168.455011 Z" id="Path" fill="#EAA58B" fill-rule="nonzero"></path>
            <path d="M79.4831929,151.4149 L78.8113525,157.479379 L72.5229268,157.255432 L77.9133259,161.299911 L75.8978049,168.486364 L81.2926829,163.767805 L86.1411308,167.001596 C86.2754989,166.573112 86.3986696,166.139401 86.510643,165.700466 L84.6518847,161.071486 L87.5318404,157.916075 C87.5788692,157.329335 87.6236585,156.751552 87.6662084,156.189446 L82.6363636,157.029246 L79.4831929,151.4149 Z" id="Path" fill="#FFB7D5" fill-rule="nonzero"></path>
            <path d="M65.4753215,138.808936 C64.9087361,140.5602 64.2996009,142.461508 63.6277605,144.528537 L69.6026608,144.89357 L65.4753215,138.808936 Z" id="Path" fill="#FFB7D5" fill-rule="nonzero"></path>
            <path d="M86.5733481,193.519135 C86.6674058,192.175455 86.9607761,184.090976 89.0255654,184.236541 C91.7129268,184.424656 88.5888692,193.660222 88.5888692,193.660222 L86.5733481,193.519135 Z" id="Path" fill="#30242A" fill-rule="nonzero"></path>
            <path d="M136.30969,105.478936 C136.30969,105.478936 113.850067,109.644346 101.497162,114.808559 C89.0255654,120.024279 89.1464967,129.286718 91.3904435,154.44714 C93.4059645,176.971707 97.0070288,187.909268 89.5988692,191.277428 C82.8043237,194.367894 80.4439246,198.242173 80.766408,201.785011 L114.21286,201.785011 C114.593578,201.785011 114.958703,201.633771 115.227911,201.364563 C115.49712,201.095355 115.648359,200.73023 115.648359,200.349512 L115.648359,200.349512 C115.648359,199.556708 115.005664,198.914013 114.21286,198.914013 L113.648514,198.914013 C114.703304,195.462993 116.23286,188.726674 116.44337,177.578603 L120.590865,177.578603 C120.590865,177.578603 122.722838,167.724945 120.366918,158.937273 C117.903503,149.73082 115.650599,148.158714 114.304678,141.870288 L134.430776,141.870288 C149.800244,141.870288 161.30439,127.654146 157.960865,112.654191 C156.917273,107.966984 155.403392,105.487894 155.403392,105.487894 L136.30969,105.478936 Z" id="Path" fill="#FF7235" fill-rule="nonzero"></path>
            <polygon id="Path" fill="#FFB7D5" fill-rule="nonzero" points="122.384678 118.624612 118.261818 123.81122 111.841264 121.605344 115.64612 127.833304 110.705854 134.571863 117.218226 131.875543 120.848404 138.567073 121.260466 131.201463 127.548891 129.855543 122.160732 126.485144"></polygon>
            <path d="M113.41337,158.661818 L117.220466,164.889778 L112.2802,171.628337 L118.792572,168.940976 L121.206718,173.390798 C121.560554,169.93306 121.735233,164.818115 120.606541,159.906962 L119.836164,160.876652 L113.41337,158.661818 Z" id="Path" fill="#FFB7D5" fill-rule="nonzero"></path>
            <path d="M96.6218404,177.569645 L96.332949,174.09847 L103.624656,171.285698 L96.7226164,169.854678 L97.4840355,162.278559 L93.0050998,168.139246 L92.8707317,168.083259 C93.3007095,171.7 93.6769401,174.859889 93.8874501,177.594279 L93.8874501,177.569645 L96.6218404,177.569645 Z" id="Path" fill="#FFB7D5" fill-rule="nonzero"></path>
            <path d="M114.21286,198.905055 L113.648514,198.905055 C114.703304,195.454035 116.23286,188.717716 116.44337,177.569645 L93.8807317,177.569645 L93.8807317,177.5898 C93.8986475,177.813747 93.9143237,178.037694 93.93,178.261641 C93.93,178.281796 93.93,178.304191 93.93,178.324346 C94.3980488,185.322683 93.6343902,189.41643 89.5899113,191.255033 C82.7953659,194.345499 80.4349667,198.219778 80.7574501,201.762616 L114.21286,201.762616 C115.005664,201.762616 115.648359,201.119922 115.648359,200.327118 C115.648359,199.534313 115.005664,198.891619 114.21286,198.891619 L114.21286,198.905055 Z" id="Path" fill="#EAA58B" fill-rule="nonzero"></path>
            <polygon id="Path" fill="#FFB7D5" fill-rule="nonzero" points="144.159024 106.058958 133.841796 106.972661 134.916741 111.120155 128.317029 114.640599 136.538115 115.740177 139.319534 121.900953 142.179335 115.52071 150.541508 114.199424 143.278914 110.459512"></polygon>
            <path d="M94.9847894,135.243703 L97.448204,127.383171 L104.634656,128.502905 L99.0203104,123.562639 L103.051353,118.846319 L95.6409534,121.533681 L94.4562749,119.502483 C92.5504878,121.66133 91.3994013,124.341973 90.7835477,127.788514 L92.0466075,127.828825 L94.9847894,135.243703 Z" id="Path" fill="#FFB7D5" fill-rule="nonzero"></path>
            <path d="M114.21286,110.584922 C112.696741,111.005942 111.187339,111.447118 109.713769,111.901729 L115.650599,115.932772 L114.21286,110.584922 Z" id="Path" fill="#FFB7D5" fill-rule="nonzero"></path>
            <polygon id="Path" fill="#FFB7D5" fill-rule="nonzero" points="104.417428 146.922528 101.273215 140.410155 99.7011086 147.596608 93.862816 147.148714 99.2509756 151.865033 95.882816 159.725565 101.730067 154.274701 106.576275 159.862173 105.091508 151.4149 110.031774 144.902528"></polygon>
            <path d="M91.0858758,196.27816 C94.0554102,195.458514 99.851153,193.348936 98.803082,191.044523 C97.8266741,188.894634 92.1608204,192.612151 90.2281596,194.267118 C89.7403188,193.372049 89.1171139,192.557728 88.3805987,191.852971 C82.5176718,194.838182 80.4596009,198.452683 80.766408,201.776053 L114.21286,201.776053 C115.005664,201.776053 115.648359,201.133358 115.648359,200.340554 L115.648359,200.340554 C115.648359,199.54775 115.005664,198.905055 114.21286,198.905055 L91.6166297,198.905055 C91.5326387,198.013187 91.354735,197.132676 91.0858758,196.27816 L91.0858758,196.27816 Z" id="Path" fill="#30242A" fill-rule="nonzero"></path>
            <line x1="114.21286" y1="142.365211" x2="108.430554" y2="142.28459" id="Path" stroke="#A15842" stroke-linecap="round"></line>
            <path d="M118.512639,109.604035 C112.522062,111.131353 106.119424,113.005787 101.268736,115.030266 C90.9223947,119.363636 89.2450333,126.476186 90.2505543,143.155743" id="Path" stroke="#A15842" stroke-linecap="round"></path>
            <rect id="Rectangle" fill="#FFBE21" fill-rule="nonzero" x="189.03796" y="108.293947" width="5.50013304" height="93.4821064"></rect>
            <line x1="194.538093" y1="109.579401" x2="189.03796" y2="109.579401" id="Path" stroke="#A15842"></line>
            <path d="M114.748093,37.9992905 C111.612838,37.5513969 104.430865,40.921796 104.193481,47.5842129 C103.956098,54.2466297 109.904124,56.387561 110.855898,56.8645676 L124.657738,54.7213969 L125.609512,39.4930155 L114.748093,37.9992905 Z" id="Path" fill="#A15842" fill-rule="nonzero"></path>
            <circle id="Oval" fill="#A15842" fill-rule="nonzero" cx="139.131419" cy="10.727051" r="10.727051"></circle>
            <path d="M132.173392,18.1038581 C132.827317,18.4061863 127.320466,5.33889135 124.509933,7.3768071 C121.865122,9.30050998 128.852262,16.5720621 132.173392,18.1038581 Z" id="Path" fill="#30242A" fill-rule="nonzero"></path>
            <path d="M132.47796,18.9033481 C133.078137,19.6199778 147.128559,14.7043459 145.184701,11.8691796 C143.325942,9.14150776 131.877783,18.1844789 132.47796,18.9033481 Z" id="Path" fill="#30242A" fill-rule="nonzero"></path>
            <path d="M151.130488,54.8423282 C151.130488,54.8423282 160.563126,46.981796 154.48969,38.2232373 C150.624368,32.6402439 140.114545,34.8640355 140.114545,34.8640355 C140.369845,31.798204 141.202927,22.9657428 134.560665,18.112816 C127.918404,13.2598891 119.491286,15.815122 116.420976,19.644612 C113.350665,23.474102 114.123282,30.6292018 113.102084,35.7374279 C112.080887,40.8456541 112.761685,44.3190687 115.910377,45.9538803 C118.774656,47.4408869 122.145055,46.5428603 122.145055,46.5428603 L121.786741,51.9332594 C121.786741,51.9332594 115.292284,52.1773614 111.312749,53.6173392 C101.723348,57.0885144 84.8758315,80.8940576 84.8758315,80.8940576 C74.3212195,80.4461641 64.4384479,79.9982705 64.4384479,79.9982705 L69.6049002,95.2714412 C69.6049002,95.2714412 82.6296452,99.5376275 92.0622838,97.0630155 C101.63153,94.557051 110.703614,81.1180044 110.703614,81.1180044 L113.838869,90.10051 L108.44847,105.147494 L155.387716,105.147494 L147.527184,91.2224834 C148.886541,78.8740576 151.130488,54.8423282 151.130488,54.8423282 Z" id="Path" fill="#EAA58B" fill-rule="nonzero"></path>
            <path d="M136.047672,51.3733925 L123.730599,73.7076053 L118.691796,52.1572062 C116.476962,52.381153 113.525344,52.8156098 111.335144,53.6083814 C101.723348,57.0885144 84.8758315,80.8940576 84.8758315,80.8940576 C74.3212195,80.4461641 64.4384479,79.9982705 64.4384479,79.9982705 L69.6049002,95.2714412 C69.6049002,95.2714412 82.6296452,99.5376275 92.0622838,97.0630155 C101.63153,94.557051 110.703614,81.1180044 110.703614,81.1180044 L113.838869,90.10051 L108.44847,105.147494 L155.387716,105.147494 L147.527184,91.2247228 C148.870865,78.8718182 151.110333,54.8400887 151.110333,54.8400887 C149.030858,53.5741303 146.75386,52.6657532 144.374013,52.1527273 C141.69337,51.548071 138.746231,51.9086253 136.047672,51.3733925 Z" id="Path" fill="#4756DF" fill-rule="nonzero"></path>
            <path d="M72.2609091,103.577628 L111.155987,103.577628 L102.312328,75.6469845 C101.778838,73.957764 100.21175,72.8095779 98.4402882,72.8095779 L65.5693792,72.8095779 C64.2739239,72.8087781 63.0558524,73.4262093 62.2906691,74.471532 C61.5254858,75.5168547 61.3050582,76.864568 61.6973392,78.0992018 L69.0069623,101.197073 C69.4569303,102.614914 70.7733793,103.578015 72.2609091,103.577628 Z" id="Path" fill="#30242A" fill-rule="nonzero"></path>
            <path d="M78.0566519,85.4446563 C79.0890466,84.0337916 83.7717738,87.7602661 84.1166519,88.0670732 C84.2958093,87.7602661 86.7345898,84.036031 88.5216851,85.4446563 C90.0736364,86.6674058 86.6629268,92.1294678 85.7559424,93.5224169 C85.6790747,93.607774 85.5696011,93.6565098 85.4547339,93.6565098 C85.3398667,93.6565098 85.2303932,93.607774 85.1535255,93.5224169 C83.4985588,92.1294678 77.1608647,86.6674058 78.0566519,85.4446563 Z" id="Path" fill="#A15842" fill-rule="nonzero"></path>
            <ellipse id="Oval" fill="#A15842" fill-rule="nonzero" transform="translate(83.056177, 84.223277) rotate(-17.300000) translate(-83.056177, -84.223277) " cx="83.0561766" cy="84.2232766" rx="1" ry="2.26858093"></ellipse>
            <path d="M133.74102,100.433415 C133.969352,101.166168 133.836002,101.963819 133.381744,102.582457 C132.927487,103.201096 132.20635,103.567144 131.438847,103.56867 L72.2609091,103.56867 C70.7733793,103.569057 69.4569303,102.605957 69.0069623,101.188115 L68.7650998,100.424457 L133.74102,100.433415 Z" id="Path" fill="#30242A" fill-rule="nonzero"></path>
            <rect id="Rectangle" fill="#FFBE21" fill-rule="nonzero" x="30.6336807" y="103.577627" width="173.38184" height="5.6143459"></rect>
            <path d="M169.413503,134.343437 L173.014568,120.259424 L152.008359,120.259424 C142.381662,120.259896 133.979073,126.783977 131.59337,136.110377 L129.15235,145.65051 L154.850244,145.65051 C161.717371,145.650002 167.711299,140.996251 169.413503,134.343437 Z" id="Path" fill="#FFB7D5" fill-rule="nonzero"></path>
            <line x1="129.649512" y1="141.957627" x2="128.81867" y2="145.469113" id="Path" stroke="#A15842" stroke-linecap="round" stroke-linejoin="round"></line>
            <path d="M62.5662528,80.8067184 C59.9527938,82.1123282 58.647184,84.2890909 58.647184,85.8141685 C58.647184,88.0401996 60.9135255,88.45898 60.9135255,88.45898 C60.9135255,88.45898 59.2227273,91.1172284 62.1631486,92.364612 C62.1631486,92.364612 62.1631486,95.1012417 64.9020177,95.1012417 C64.9020177,95.1012417 64.5392239,97.2354545 67.3967849,97.4370067 C70.2543459,97.6385588 73.1947672,96.1470732 73.4433481,95.1818625 C73.7277605,94.0419734 72.9596231,93.0879601 70.8858758,92.7856319 C70.8858758,92.7856319 73.6852106,91.4777827 73.241796,89.8272949 C72.7983814,88.1768071 70.906031,88.214878 70.906031,88.214878 C70.906031,88.214878 72.7177605,87.1287361 71.7503104,85.5275166 C70.7828603,83.9262971 68.9330599,84.4816851 68.9330599,84.4816851 C68.9330599,84.4816851 69.4167849,83.3619512 68.5702661,82.508714 C67.5625055,81.5009534 63.2291353,82.7729712 63.2291353,82.7729712 L62.5662528,80.8067184 Z" id="Path" fill="#EAA58A" fill-rule="nonzero"></path>
            <path d="M64.9221729,95.2064967 C67.2803821,94.6411495 69.568291,93.8149185 71.743592,92.743082" id="Path" stroke="#A15842" stroke-linecap="round"></path>
            <path d="M62.1564302,92.3511752 C65.4260469,91.4546106 68.5477466,90.0868867 71.4233481,88.29102" id="Path" stroke="#A15842" stroke-linecap="round"></path>
            <path d="M60.6895787,88.7769845 C63.7194858,87.8805588 66.582099,86.493886 69.1637251,84.6720399" id="Path" stroke="#A15842" stroke-linecap="round"></path>
            <path d="M154.500887,38.2232373 C150.635565,32.6402439 140.125743,34.8640355 140.125743,34.8640355 C140.381042,31.798204 141.214124,22.9657428 134.571863,18.112816 C127.929601,13.2598891 119.502483,15.815122 116.432173,19.644612 C115.18255,21.2122395 114.571175,23.3218182 114.2151,25.6239911 C116.253016,25.9666297 119.242705,25.2656763 119.242705,25.2656763 C123.329734,29.8633038 126.991264,30.5933703 126.991264,30.5933703 C129.851064,27.7335698 134.867472,27.8276275 135.682639,32.1609978 C136.529157,36.6600887 129.342705,38.6823282 129.342705,38.6823282 C129.342705,38.6823282 128.670865,46.7668071 132.254013,49.6870732 C133.353731,50.5587541 134.654008,51.141531 136.036475,51.3823503 C138.723836,51.9175831 141.682173,51.5570288 144.382971,52.1572062 C146.762818,52.6702321 149.039816,53.5786092 151.11929,54.8445676 C151.939788,54.1216205 152.689655,53.3222625 153.358758,52.4572949 C155.714678,49.4698448 158.531929,44.0458537 154.500887,38.2232373 Z" id="Path" fill="#A15842" fill-rule="nonzero"></path>
            <path d="M123.506652,23.6263858 C122.162971,24.7461197 120.595344,25.4179601 118.790333,25.8658537" id="Path" stroke="#EAA58B" stroke-linecap="round"></path>
            <path d="M122.071153,47.0467406 C123.114009,46.6988553 124.119938,46.2487752 125.074279,45.7030599" id="Path" stroke="#A15842" stroke-linecap="round"></path>
            <line x1="129.61816" y1="34.1653215" x2="131.660554" y2="32.8888248" id="Path" stroke="#A15842" stroke-linecap="round"></line>
            <path d="M117.899024,40.1603769 C118.322284,40.4223947 119.914545,40.6261863 120.546075,39.4101552" id="Path" stroke="#A15842" stroke-linecap="round"></path>
            <circle id="Oval" fill="#30242A" fill-rule="nonzero" cx="122.059956" cy="33.6480044" r="1"></circle>
            <circle id="Oval" fill="#30242A" fill-rule="nonzero" cx="115.711064" cy="32.6335255" r="1"></circle>
            <path d="M117.867672,35.5918625 C117.715388,36.0733481 117.583259,36.5973836 117.670599,36.7720621 C117.790608,36.9934109 117.972773,37.1747983 118.194634,37.2938581" id="Path" stroke="#A15842" stroke-linecap="round"></path>
            <circle id="Oval" fill="#F5EBDD" fill-rule="nonzero" cx="130.578891" cy="38.9868958" r="2.68288248"></circle>
            <ellipse id="Oval" stroke="#30242A" stroke-linecap="round" transform="translate(113.783729, 32.307543) rotate(-78.990000) translate(-113.783729, -32.307543) " cx="113.783729" cy="32.3075434" rx="4.40055432" ry="3.96161863"></ellipse>
            <ellipse id="Oval" stroke="#30242A" stroke-linecap="round" transform="translate(123.514215, 33.500658) rotate(-78.990000) translate(-123.514215, -33.500658) " cx="123.514215" cy="33.5006583" rx="4.40055432" ry="3.96161863"></ellipse>
            <line x1="117.856475" y1="32.702949" x2="119.403947" y2="32.8686696" id="Path" stroke="#30242A" stroke-linecap="round"></line>
            <line x1="140.638581" y1="35.1596452" x2="140.192927" y2="38.0261641" id="Path" stroke="#30242A" stroke-linecap="round"></line>
            <line x1="108.235721" y1="75.2797118" x2="110.403525" y2="81.5882927" id="Path" stroke="#30242A" stroke-linecap="round" stroke-linejoin="round"></line>
            <line x1="119.688359" y1="89.6526164" x2="113.988914" y2="89.6526164" id="Path" stroke="#30242A" stroke-linecap="round" stroke-linejoin="round"></line>
            <polyline id="Path" stroke="#30242A" stroke-linecap="round" stroke-linejoin="round" points="124.180732 73.4836585 125.976785 82.2422173 125.976785 90.3266962"></polyline>
            <polyline id="Path" stroke="#30242A" stroke-linecap="round" stroke-linejoin="round" points="112.23541 53.4135477 115.64612 61.1307539 111.60388 60.6828603 125.976785 82.2422173"></polyline>
            <polyline id="Path" stroke="#30242A" stroke-linecap="round" stroke-linejoin="round" points="145.466874 52.4953659 139.677849 60.6828603 145.068248 60.2327273 125.302705 77.7498448"></polyline>
            <line x1="148.476718" y1="79.9490022" x2="144.170222" y2="73.9337916" id="Path" stroke="#30242A" stroke-linecap="round" stroke-linejoin="round"></line>
            <path d="M153.459534,102.119734 C151.114812,101.33816 146.906851,99.8287583 144.369534,98.3126386" id="Path" stroke="#30242A" stroke-linecap="round" stroke-linejoin="round"></path>
            <circle id="Oval" fill="#FFB7D5" fill-rule="nonzero" cx="88.7837029" cy="41.9900222" r="4.40503326"></circle>
            <path d="M71.4735798,22.4953916 L75.4195222,22.4953916 C76.0577233,22.4953916 76.5750876,23.0127559 76.5750876,23.650957 C76.5750876,24.2891582 76.0577233,24.8065224 75.4195222,24.8065224 L71.4735798,24.8065224 C70.8353787,24.8065224 70.3180144,24.2891582 70.3180144,23.650957 C70.3180144,23.0127559 70.8353787,22.4953916 71.4735798,22.4953916 Z" id="Rectangle" fill="#4756DF" fill-rule="nonzero" transform="translate(73.446551, 23.650957) rotate(50.330000) translate(-73.446551, -23.650957) "></path>
            <path d="M80.2311752,28.2172949 L77.6513082,25.1044346 L31.2786475,63.5560976 C30.4365302,64.2549874 30.3202363,65.504144 31.0188692,66.3464745 L31.0703769,66.4091796 C31.4056033,66.8134419 31.8877236,67.067939 32.41063,67.1166596 C32.9335364,67.1653802 33.4543741,67.0043314 33.8585144,66.6689579 L48.3568293,54.6430155 L48.3568293,96.8413082 L52.4035477,96.8413082 L52.4035477,51.2838137 L80.2311752,28.2172949 Z" id="Path" fill="#3EC1F3" fill-rule="nonzero"></path>
            <path d="M72.758071,29.113082 L74.0502439,30.6807095 C74.5002803,31.2245805 74.8423256,31.8493832 75.0580044,32.5215521" id="Path" stroke="#4756DF"></path>
            <circle id="Oval" fill="#4756DF" fill-rule="nonzero" cx="50.3790687" cy="50.2984479" r="5.27842572"></circle>
            <circle id="Oval" fill="#3EC1F3" fill-rule="nonzero" cx="50.3790687" cy="50.2984479" r="2.02895787"></circle>
            <line x1="92.4004435" y1="39.4885366" x2="85.6484479" y2="45.0692905" id="Path" stroke="#A15842"></line>
            <path d="M83.653082,27.652949 C82.2333294,27.4861406 80.9324262,26.7787444 80.0206652,25.6777384 L78.2290909,23.5121729 C76.9105693,21.9247723 74.5554755,21.7052976 72.9663415,23.0217295 L72.9663415,23.0217295 C72.2036153,23.6542125 71.7234298,24.5638206 71.6314505,25.5503934 C71.5394712,26.5369661 71.8432349,27.5196627 72.475898,28.2822395 L74.2674723,30.4545233 C75.1751772,31.5523862 75.6265301,32.9569515 75.5282927,34.378071 L75.0803991,40.9262749 C74.8584248,44.1302509 75.6717566,47.3207726 77.4004878,50.0274723 L77.9737916,50.9232594 L99.4570067,33.1038137 L98.6866297,32.3804656 C96.3483576,30.1805313 93.3650695,28.790162 90.1766519,28.4143681 L83.653082,27.652949 Z" id="Path" fill="#3EC1F3" fill-rule="nonzero"></path>
            <path d="M52.4035477,96.8413082 L48.3568293,96.8413082 L42.3752106,98.4716408 C40.0729404,99.0998078 38.4759616,101.191199 38.4762971,103.577627 L62.2818404,103.577627 C62.2818404,101.190563 60.6838461,99.0989649 58.3806874,98.4716408 L52.4035477,96.8413082 Z" id="Path" fill="#3EC1F3" fill-rule="nonzero"></path>
            <line x1="95.3811752" y1="29.9349667" x2="75.7208869" y2="46.1845455" id="Path" stroke="#4756DF" stroke-linecap="round"></line>
            <line x1="48.2582927" y1="96.3777384" x2="52.4035477" y2="96.3777384" id="Path" stroke="#4756DF" stroke-linecap="round"></line>
            <line x1="39.2623503" y1="100.778293" x2="61.3614191" y2="100.778293" id="Path" stroke="#4756DF" stroke-linecap="round"></line>
            <path d="M166.629845,161.351419 C167.077738,157.544324 166.853792,148.998514 161.913525,142.486142 C156.973259,135.973769 163.7051,138.679047 165.720621,140.470621 C168.945455,143.33714 171.7851,146.084967 174.255233,155.293659 L166.629845,161.351419 Z" id="Path" fill="#30242A" fill-rule="nonzero"></path>
            <path d="M226.28255,201.776053 L252.647805,201.776053 L252.647805,200.913858 C252.646568,198.382954 250.594518,196.331907 248.063614,196.331907 L226.145942,196.331907 L226.28255,201.776053 Z" id="Path" fill="#A15842" fill-rule="nonzero"></path>
            <path d="M161.967273,176.604435 L167.527871,201.776053 L177.860776,201.776053 L177.860776,200.208426 C177.860785,198.104006 176.158091,196.396304 174.053681,196.390133 L174.053681,196.390133 C174.053681,196.390133 179.217894,192.518093 182.362106,188.6998 C182.362106,188.6998 187.752506,195.26816 195.389091,194.143947 L195.942239,196.831308 C196.535299,199.706392 199.064391,201.770805 202,201.776053 L227.043969,201.776053 C238.151729,201.776053 243.616031,200.080776 243.929557,193.756519 C243.94907,193.269073 243.768966,192.794748 243.430842,192.4431 C243.092719,192.091451 242.625818,191.892891 242.137982,191.893282 L235.146364,191.893282 C234.562387,191.89387 234.009684,191.629462 233.643681,191.174412 L230.667428,187.48153 C228.865851,185.249881 225.929028,184.27269 223.149534,184.980044 L217.163437,186.509601 C217.163437,186.509601 206.557317,171.267783 196.95,160.681818 C187.768182,150.5751 170.497406,149.484479 163.693902,162.648071 C161.506559,166.955919 160.895711,171.893407 161.967273,176.604435 Z" id="Path" fill="#A15842" fill-rule="nonzero"></path>
            <path d="M224.573836,201.776053 L224.573836,200.913858 C224.573836,199.698261 224.090789,198.532484 223.231022,197.673137 C222.371255,196.81379 221.205242,196.331313 219.989645,196.331906 L216.937251,196.331906" id="Path" stroke="#30242A"></path>
            <path d="M182.778647,188.878958 C184.346275,187.013481 189.696364,180.145033 189.313415,173.42663 C188.903592,166.237938 184.597095,162.421885 184.597095,162.421885" id="Path" stroke="#30242A" stroke-linecap="round"></path>
            <path d="M194.029734,184.653082 C194.029734,184.653082 194.316386,189.967339 194.891929,193.935676" id="Path" stroke="#30242A" stroke-linecap="round"></path>
            <line x1="172.470377" y1="199.47612" x2="172.470377" y2="201.552106" id="Path" stroke="#30242A" stroke-linecap="round"></line>
            <line x1="174.94051" y1="199.47612" x2="174.94051" y2="201.552106" id="Path" stroke="#30242A" stroke-linecap="round"></line>
            <line x1="219.63357" y1="199.47612" x2="219.63357" y2="201.552106" id="Path" stroke="#30242A" stroke-linecap="round"></line>
            <line x1="222.103703" y1="199.47612" x2="222.103703" y2="201.552106" id="Path" stroke="#30242A" stroke-linecap="round"></line>
            <circle id="Oval" fill="#30242A" fill-rule="nonzero" cx="228.728049" cy="192.401641" r="1.01"></circle>
            <polygon id="Path" fill="#30242A" fill-rule="nonzero" points="223.216718 184.959889 223.216718 184.933016 217.154479 186.500643 223.140576 184.971086"></polygon>
            <path d="M208.297384,196.432683 C206.541641,197.32847 204.06031,199.081973 204.266341,201.737982 L214.016984,201.737982 L216.066098,198.50643 C216.746799,197.432229 217.929637,196.780823 219.201353,196.7798 L219.853038,196.7798 L223.194324,185.027073 L223.145055,184.975565 L217.158958,186.505122 L211.42816,193.846098 C210.584542,194.92518 209.516242,195.807789 208.297384,196.432683 L208.297384,196.432683 Z" id="Path" fill="#30242A" fill-rule="nonzero"></path>
            <path d="M194.056608,166.168514 C194.056608,166.168514 191.344612,175.556364 200.103171,179.101441 C204.544035,180.893016 208.232439,179.533659 210.792151,177.757761 C206.92459,172.606984 201.807406,166.049823 196.947761,160.693016 C195.729246,159.352345 194.360085,158.156772 192.86745,157.130022 C191.541685,158.935033 190.09051,163.400532 194.056608,166.168514 Z" id="Path" fill="#EAA58B" fill-rule="nonzero"></path>
            <circle id="Oval" fill="#EAA58B" fill-rule="nonzero" cx="171.684324" cy="169.270177" r="3.70631929"></circle>
            <path d="M242.14694,191.893281 L240.803259,191.893281 C240.653413,192.651926 240.850555,193.437835 241.340734,194.035932 C241.830913,194.634029 242.562799,194.981681 243.336098,194.983747 C243.493923,194.9837 243.651389,194.968703 243.806386,194.938958 C243.874759,194.547912 243.918886,194.153012 243.938514,193.756519 C243.958028,193.269073 243.777924,192.794748 243.4398,192.4431 C243.101676,192.091451 242.634776,191.892891 242.14694,191.893281 Z" id="Path" fill="#30242A" fill-rule="nonzero"></path>
            <line x1="247.481353" y1="199.47612" x2="247.481353" y2="201.500599" id="Path" stroke="#30242A" stroke-linecap="round"></line>
            <line x1="249.951486" y1="199.47612" x2="249.951486" y2="201.500599" id="Path" stroke="#30242A" stroke-linecap="round"></line>
            <path d="M233.928093,201.507317 C239.419268,200.954169 242.69337,199.467162 243.882528,196.302794" id="Path" stroke="#30242A" stroke-linecap="round" stroke-linejoin="round"></path>
            <path d="M144.394169,83.6821951 C141.63059,83.4347085 138.851875,83.4040086 136.083503,83.5903769 C132.124124,83.9150998 126.800909,84.9519734 124.662217,85.9866075 C122.523525,87.0212417 114.333792,90.6738137 116.539667,91.8988027 C118.555188,93.0185366 122.783304,91.3344568 122.783304,91.3344568 C122.783304,91.3344568 118.564146,95.2132151 117.838559,96.8368293 C117.112971,98.4604435 119.511441,99.3719069 119.511441,99.3719069 C120.142971,102.144368 122.96918,100.952971 122.96918,100.952971 C124.749557,104.739911 134.368071,96.5345011 134.368071,96.5345011 C136.656451,96.7722565 138.967275,96.6749348 141.227561,96.2456098 C141.227561,96.2456098 142.445831,96.9286475 144.400887,97.8781818 L144.394169,83.6821951 Z" id="Path" fill="#EAA58A" fill-rule="nonzero"></path>
            <path d="M168.423659,102.679601 C186.390909,94.1449889 160.345898,62.2572062 151.130488,54.8423282 L145.966275,75.7298448 L152.478647,84.7123503 C149.625565,84.2196674 146.897894,83.8815078 144.394169,83.6821951 L144.394169,97.8781818 C150.095854,100.650643 162.077007,105.702882 168.423659,102.679601 Z" id="Path" fill="#4756DF" fill-rule="nonzero"></path>
            <path d="M121.923348,91.5696009 C123.517849,90.2505543 126.1649,88.1185809 128.140111,86.8331264" id="Path" stroke="#A15842" stroke-linecap="round"></path>
            <path d="M130.316874,89.9840576 C125.728204,92.9558315 121.547118,96.926408 119.477849,99.0046341" id="Path" stroke="#A15842" stroke-linecap="round"></path>
            <path d="M132.35255,93.3454989 C129.217295,95.4976275 125.57816,98.7605322 123.202084,101" id="Path" stroke="#A15842" stroke-linecap="round"></path>
            <path d="M186.256541,92.1384257 C186.963493,92.1396584 187.536284,92.7124493 187.537517,93.4194013 L187.537517,93.6097561 C187.536284,94.3167082 186.963493,94.889499 186.256541,94.8907317 L179.656829,94.8907317 L179.656829,92.1384257 L186.256541,92.1384257 M186.256541,90.3468514 L178.107118,90.3468514 C178.042582,90.3468487 177.980721,90.3726377 177.935298,90.4184813 C177.889875,90.4643248 177.864657,90.5264204 177.865245,90.5909534 L177.865245,96.4471619 C177.865245,96.5807388 177.973541,96.6890244 178.107118,96.6890244 L186.256541,96.6890244 C187.072597,96.6890244 187.855132,96.3643901 188.431541,95.7867213 C189.007949,95.2090526 189.330875,94.4258104 189.329098,93.6097561 L189.329098,93.4126829 C189.329098,91.7157605 187.953463,90.340133 186.256541,90.340133 L186.256541,90.3468514 Z" id="Shape" fill="#3EC1F3" fill-rule="nonzero"></path>
            <path d="M176.402882,89.3816408 C169.729268,89.3816408 166.645521,84.0629047 166.645521,84.0629047 L171.124457,103.577627 L181.667871,103.577627 L186.146807,84.0629047 C184.032268,87.3963394 180.350346,89.4061223 176.402882,89.3816408 L176.402882,89.3816408 Z" id="Path" fill="#3EC1F3" fill-rule="nonzero"></path>
            <path d="M176.402882,89.3816408 C180.35511,89.4107684 184.043167,87.4004095 186.160244,84.0629047 L166.645521,84.0629047 C166.645521,84.0629047 169.729268,89.3816408 176.402882,89.3816408 Z" id="Path" fill="#30242A" fill-rule="nonzero"></path>
        </g>
    </g>
</svg>