<?xml version="1.0" encoding="UTF-8"?>
<svg width="134px" height="32px" viewBox="0 0 134 32" version="1.1" xmlns="http://www.w3.org/2000/svg" xmlns:xlink="http://www.w3.org/1999/xlink">
    <title>logo</title>
    <g id="logo" stroke="none" stroke-width="1" fill="none" fill-rule="evenodd">
        <circle id="Oval" fill="#E8F5E6" cx="17.5345673" cy="15.7120286" r="12.5"></circle>
        <path d="M49.012,23.2120286 L49.012,19.7800286 L42.214,19.7800286 L42.214,8.5380286 L38.32,8.5380286 L38.32,23.2120286 L49.012,23.2120286 Z M55.612,23.5640286 C56.4333333,23.5640286 57.1813333,23.4210286 57.856,23.1350286 C58.5306667,22.8490286 59.11,22.4566953 59.594,21.9580286 C60.078,21.4593619 60.4556667,20.8763619 60.727,20.2090286 C60.9983333,19.5416953 61.134,18.8193619 61.134,18.0420286 C61.134,17.2793619 60.9983333,16.5606953 60.727,15.8860286 C60.4556667,15.2113619 60.078,14.6246953 59.594,14.1260286 C59.11,13.6273619 58.5306667,13.2350286 57.856,12.9490286 C57.1813333,12.6630286 56.4333333,12.5200286 55.612,12.5200286 C54.7906667,12.5200286 54.0426667,12.6630286 53.368,12.9490286 C52.6933333,13.2350286 52.114,13.6273619 51.63,14.1260286 C51.146,14.6246953 50.7683333,15.2113619 50.497,15.8860286 C50.2256667,16.5606953 50.09,17.2793619 50.09,18.0420286 C50.09,18.8193619 50.2256667,19.5416953 50.497,20.2090286 C50.7683333,20.8763619 51.146,21.4593619 51.63,21.9580286 C52.114,22.4566953 52.6933333,22.8490286 53.368,23.1350286 C54.0426667,23.4210286 54.7906667,23.5640286 55.612,23.5640286 Z M55.612,20.3080286 C54.996,20.3080286 54.5046667,20.0953619 54.138,19.6700286 C53.7713333,19.2446953 53.588,18.7020286 53.588,18.0420286 C53.588,17.3820286 53.7713333,16.8393619 54.138,16.4140286 C54.5046667,15.9886953 54.996,15.7760286 55.612,15.7760286 C56.228,15.7760286 56.7193333,15.9886953 57.086,16.4140286 C57.4526667,16.8393619 57.636,17.3820286 57.636,18.0420286 C57.636,18.7020286 57.4526667,19.2446953 57.086,19.6700286 C56.7193333,20.0953619 56.228,20.3080286 55.612,20.3080286 Z M67.558,27.8760286 C69.3913333,27.8760286 70.7846667,27.4506953 71.738,26.6000286 C72.6913333,25.7493619 73.168,24.3413619 73.168,22.3760286 L73.168,22.3760286 L73.168,13.5100286 C72.4053333,13.2313619 71.6316667,13.0186953 70.847,12.8720286 C70.0623333,12.7253619 69.2593333,12.6520286 68.438,12.6520286 C67.558,12.6520286 66.7476667,12.7766953 66.007,13.0260286 C65.2663333,13.2753619 64.6283333,13.6346953 64.093,14.1040286 C63.5576667,14.5733619 63.1433333,15.1600286 62.85,15.8640286 C62.5566667,16.5680286 62.41,17.3673619 62.41,18.2620286 C62.41,18.9806953 62.5126667,19.6370286 62.718,20.2310286 C62.9233333,20.8250286 63.2203333,21.3346953 63.609,21.7600286 C63.9976667,22.1853619 64.478,22.5153619 65.05,22.7500286 C65.622,22.9846953 66.2746667,23.1020286 67.008,23.1020286 C67.4333333,23.1020286 67.866,23.0580286 68.306,22.9700286 C68.746,22.8820286 69.1346667,22.6840286 69.472,22.3760286 L69.472,22.3760286 L69.472,22.7280286 C69.472,23.5346953 69.285,24.1103619 68.911,24.4550286 C68.537,24.7996953 67.9686667,24.9720286 67.206,24.9720286 C66.7366667,24.9720286 66.2783333,24.9023619 65.831,24.7630286 C65.3836667,24.6236953 64.962,24.4293619 64.566,24.1800286 L64.566,24.1800286 L63.158,26.7540286 C63.818,27.1793619 64.522,27.4726953 65.27,27.6340286 C66.018,27.7953619 66.7806667,27.8760286 67.558,27.8760286 Z M67.866,20.1760286 C67.3673333,20.1760286 66.953,20.0073619 66.623,19.6700286 C66.293,19.3326953 66.128,18.8193619 66.128,18.1300286 C66.128,17.7926953 66.1683333,17.4736953 66.249,17.1730286 C66.3296667,16.8723619 66.458,16.6120286 66.634,16.3920286 C66.81,16.1720286 67.0373333,15.9960286 67.316,15.8640286 C67.5946667,15.7320286 67.9246667,15.6660286 68.306,15.6660286 C68.702,15.6660286 69.098,15.7320286 69.494,15.8640286 L69.494,15.8640286 L69.494,18.3940286 C69.494,19.0100286 69.3436667,19.4610286 69.043,19.7470286 C68.7423333,20.0330286 68.35,20.1760286 67.866,20.1760286 Z M80.406,23.5640286 C81.2273333,23.5640286 81.9753333,23.4210286 82.65,23.1350286 C83.3246667,22.8490286 83.904,22.4566953 84.388,21.9580286 C84.872,21.4593619 85.2496667,20.8763619 85.521,20.2090286 C85.7923333,19.5416953 85.928,18.8193619 85.928,18.0420286 C85.928,17.2793619 85.7923333,16.5606953 85.521,15.8860286 C85.2496667,15.2113619 84.872,14.6246953 84.388,14.1260286 C83.904,13.6273619 83.3246667,13.2350286 82.65,12.9490286 C81.9753333,12.6630286 81.2273333,12.5200286 80.406,12.5200286 C79.5846667,12.5200286 78.8366667,12.6630286 78.162,12.9490286 C77.4873333,13.2350286 76.908,13.6273619 76.424,14.1260286 C75.94,14.6246953 75.5623333,15.2113619 75.291,15.8860286 C75.0196667,16.5606953 74.884,17.2793619 74.884,18.0420286 C74.884,18.8193619 75.0196667,19.5416953 75.291,20.2090286 C75.5623333,20.8763619 75.94,21.4593619 76.424,21.9580286 C76.908,22.4566953 77.4873333,22.8490286 78.162,23.1350286 C78.8366667,23.4210286 79.5846667,23.5640286 80.406,23.5640286 Z M80.406,20.3080286 C79.79,20.3080286 79.2986667,20.0953619 78.932,19.6700286 C78.5653333,19.2446953 78.382,18.7020286 78.382,18.0420286 C78.382,17.3820286 78.5653333,16.8393619 78.932,16.4140286 C79.2986667,15.9886953 79.79,15.7760286 80.406,15.7760286 C81.022,15.7760286 81.5133333,15.9886953 81.88,16.4140286 C82.2466667,16.8393619 82.43,17.3820286 82.43,18.0420286 C82.43,18.7020286 82.2466667,19.2446953 81.88,19.6700286 C81.5133333,20.0953619 81.022,20.3080286 80.406,20.3080286 Z M92.682,23.6080286 C93.2833333,23.6080286 93.87,23.5053619 94.442,23.3000286 C95.014,23.0946953 95.5346667,22.8086953 96.004,22.4420286 L96.004,22.4420286 L94.552,20.1540286 C94.3613333,20.2860286 94.1523333,20.4033619 93.925,20.5060286 C93.6976667,20.6086953 93.4666667,20.6600286 93.232,20.6600286 C92.4253333,20.6600286 92.022,20.2346953 92.022,19.3840286 L92.022,19.3840286 L92.022,15.7320286 L94.574,15.7320286 L94.574,12.8720286 L92.022,12.8720286 L92.022,9.9900286 L88.304,9.9900286 L88.304,12.8720286 L86.786,12.8720286 L86.786,15.7320286 L88.304,15.7320286 L88.304,18.8560286 C88.304,19.5453619 88.3736667,20.1833619 88.513,20.7700286 C88.6523333,21.3566953 88.8906667,21.8590286 89.228,22.2770286 C89.5653333,22.6950286 90.0163333,23.0213619 90.581,23.2560286 C91.1456667,23.4906953 91.846,23.6080286 92.682,23.6080286 Z M101.13,11.4640286 L101.13,8.5380286 L97.104,8.5380286 L97.104,11.4640286 L101.13,11.4640286 Z M100.976,23.2120286 L100.976,12.8720286 L97.258,12.8720286 L97.258,23.2120286 L100.976,23.2120286 Z M106.894,27.6120286 L106.894,23.2780286 C107.055333,23.3220286 107.286333,23.3733619 107.587,23.4320286 C107.887667,23.4906953 108.199333,23.5200286 108.522,23.5200286 C109.284667,23.5200286 109.999667,23.3916953 110.667,23.1350286 C111.334333,22.8783619 111.917333,22.5080286 112.416,22.0240286 C112.914667,21.5400286 113.303333,20.9460286 113.582,20.2420286 C113.860667,19.5380286 114,18.7313619 114,17.8220286 C114,17.1473619 113.901,16.5020286 113.703,15.8860286 C113.505,15.2700286 113.219,14.7236953 112.845,14.2470286 C112.471,13.7703619 112.001667,13.3890286 111.437,13.1030286 C110.872333,12.8170286 110.230667,12.6740286 109.512,12.6740286 C109.365333,12.6740286 109.185667,12.6886953 108.973,12.7180286 C108.760333,12.7473619 108.533,12.8060286 108.291,12.8940286 C108.049,12.9820286 107.807,13.1103619 107.565,13.2790286 C107.323,13.4476953 107.106667,13.6713619 106.916,13.9500286 L106.916,13.9500286 L106.762,12.8720286 L103.198,12.8720286 L103.198,27.6120286 L106.894,27.6120286 Z M108.214,20.4840286 C107.686,20.4840286 107.253333,20.4106953 106.916,20.2640286 L106.916,20.2640286 L106.916,17.8440286 C106.916,17.2720286 107.051667,16.7953619 107.323,16.4140286 C107.594333,16.0326953 108.038,15.8420286 108.654,15.8420286 C108.932667,15.8420286 109.174667,15.9080286 109.38,16.0400286 C109.585333,16.1720286 109.754,16.3406953 109.886,16.5460286 C110.018,16.7513619 110.113333,16.9823619 110.172,17.2390286 C110.230667,17.4956953 110.26,17.7413619 110.26,17.9760286 C110.26,18.8706953 110.069333,19.5123619 109.688,19.9010286 C109.306667,20.2896953 108.815333,20.4840286 108.214,20.4840286 Z M120.798,23.5640286 C121.619333,23.5640286 122.367333,23.4210286 123.042,23.1350286 C123.716667,22.8490286 124.296,22.4566953 124.78,21.9580286 C125.264,21.4593619 125.641667,20.8763619 125.913,20.2090286 C126.184333,19.5416953 126.32,18.8193619 126.32,18.0420286 C126.32,17.2793619 126.184333,16.5606953 125.913,15.8860286 C125.641667,15.2113619 125.264,14.6246953 124.78,14.1260286 C124.296,13.6273619 123.716667,13.2350286 123.042,12.9490286 C122.367333,12.6630286 121.619333,12.5200286 120.798,12.5200286 C119.976667,12.5200286 119.228667,12.6630286 118.554,12.9490286 C117.879333,13.2350286 117.3,13.6273619 116.816,14.1260286 C116.332,14.6246953 115.954333,15.2113619 115.683,15.8860286 C115.411667,16.5606953 115.276,17.2793619 115.276,18.0420286 C115.276,18.8193619 115.411667,19.5416953 115.683,20.2090286 C115.954333,20.8763619 116.332,21.4593619 116.816,21.9580286 C117.3,22.4566953 117.879333,22.8490286 118.554,23.1350286 C119.228667,23.4210286 119.976667,23.5640286 120.798,23.5640286 Z M120.798,20.3080286 C120.182,20.3080286 119.690667,20.0953619 119.324,19.6700286 C118.957333,19.2446953 118.774,18.7020286 118.774,18.0420286 C118.774,17.3820286 118.957333,16.8393619 119.324,16.4140286 C119.690667,15.9886953 120.182,15.7760286 120.798,15.7760286 C121.414,15.7760286 121.905333,15.9886953 122.272,16.4140286 C122.638667,16.8393619 122.822,17.3820286 122.822,18.0420286 C122.822,18.7020286 122.638667,19.2446953 122.272,19.6700286 C121.905333,20.0953619 121.414,20.3080286 120.798,20.3080286 Z" id="Logotipo" fill="#545454" fill-rule="nonzero"></path>
        <g id="noun_Rocket_780226" transform="translate(6.000000, 1.500000)" fill="#178D57" fill-rule="nonzero">
            <path d="M0.7869,12.6295 L4.1509,14.0244 C3.77160823,14.9819653 3.46905484,15.968173 3.2461,16.9737 L3.1185,17.5537 L7.9412,22.3793 L8.5212,22.2546 C9.52672705,22.0316452 10.5129347,21.7290918 11.4705,21.3498 L12.8654,24.7138 C12.8931695,24.7815264 12.9531434,24.8307422 13.024987,24.8447605 C13.0968306,24.8587787 13.1709069,24.8357191 13.2221,24.7834 L15.3304,22.6751 C16.0261813,21.9794011 16.3949419,21.0216771 16.3454,20.039 L16.27,18.6847 C20.1734,15.8021 24.1232,10.7474 25.1991,1.9256 C25.2609547,1.47725677 25.1099157,1.02574555 24.7907409,0.704863864 C24.471566,0.383982178 24.0208667,0.230537313 23.5722,0.29 C14.7533,1.3746 9.6957,5.3273 6.8131,9.2191 L5.4617,9.1495 C4.48119804,9.09614934 3.52379066,9.45952177 2.8256,10.15 L0.7173,12.2583 C0.65783831,12.3088506 0.630019148,12.3873849 0.644401982,12.4640934 C0.658784817,12.5408018 0.713164559,12.6039239 0.7869,12.6295 Z M14.3125,7.4907 C15.3327009,6.47403533 16.9836135,6.47594612 18.0014583,7.49496964 C19.019303,8.51399316 19.019303,10.1649068 18.0014583,11.1839304 C16.9836135,12.2029539 15.3327009,12.2048647 14.3125,11.1882 C13.8210687,10.6984721 13.5448418,10.0332354 13.5448418,9.33945 C13.5448418,8.64566464 13.8210687,7.98042789 14.3125,7.4907 Z" id="Shape"></path>
        </g>
        <path d="M6.1576,24.265 C5.59935782,24.0690945 4.99988767,24.0211369 4.4176,24.1258 C4.31240608,24.1485534 4.20289765,24.1157008 4.1276,24.0388 C4.03353002,23.9450993 4.0080422,23.8025992 4.0638,23.6821 C4.6815,22.3539 6.32,19.683 9.2867,21.8406 C9.31804391,21.8686567 9.33595736,21.9087332 9.33595736,21.9508 C9.33595736,21.9928668 9.31804391,22.0329433 9.2867,22.061 C8.48118352,22.6953667 8.02569671,23.6752556 8.06,24.7 C8.064478,24.8230242 8.16317576,24.921722 8.2862,24.9262 C9.30650106,24.9672219 10.2857511,24.5217169 10.9252,23.7256 C10.9532891,23.6912076 10.9953447,23.6712559 11.03975,23.6712559 C11.0841553,23.6712559 11.1262109,23.6912076 11.1543,23.7256 C11.5661,24.2157 12.7,25.8165 11.4443,27.3622 C10.8961064,28.021083 10.110645,28.4377733 9.2577,28.5222 C8.0397,28.6527 5.7893,29.05 4.87,30.0998 C4.79480764,30.1888895 4.67668283,30.2293601 4.56265554,30.205099 C4.44862825,30.1808378 4.35721082,30.0957838 4.3248,29.9838 C4,28.876 3.4954,26.3994 6.1576,24.265 Z" id="Path" fill="#72BE44"></path>
    </g>
</svg>